<svg width="500" height="400" xmlns="http://www.w3.org/2000/svg" xmlns:xlink="http://www.w3.org/1999/xlink" version="1.1" baseProfile="full" viewBox="0 0 500 400">
<rect width="500" height="400" x="0" y="0" id="0" fill="white"></rect>
<path d="M50 340.5L450 340.5" fill="none" stroke="#E0E6F1"></path>
<path d="M50 275.5L450 275.5" fill="none" stroke="#E0E6F1"></path>
<path d="M50 210.5L450 210.5" fill="none" stroke="#E0E6F1"></path>
<path d="M50 145.5L450 145.5" fill="none" stroke="#E0E6F1"></path>
<path d="M50 80.5L450 80.5" fill="none" stroke="#E0E6F1"></path>
<path d="M50 80l0 0l0 260l0 0Z" fill="rgb(250,250,250)" fill-opacity="0.2"></path>
<path d="M50 80l400 0l0 260l-400 0Z" fill="rgb(210,219,238)" fill-opacity="0.2"></path>
<text dominant-baseline="central" text-anchor="middle" style="font-size:12px;font-family:sans-serif;" xml:space="preserve" y="-6" transform="matrix(0,-1,1,0,25,210)" fill="#6E7079">Workflow Execute Time(ms)</text>
<path d="M50 340.5L450 340.5" fill="none" stroke="#6E7079" stroke-linecap="round"></path>
<text dominant-baseline="central" text-anchor="middle" style="font-size:12px;font-family:sans-serif;" xml:space="preserve" y="6" transform="translate(250 355)" fill="#6E7079">media service</text>
<path d="M50.5 340L50.5 345" fill="none" stroke="#6E7079"></path>
<path d="M50.5 340L50.5 345" fill="none" stroke="#6E7079"></path>
<text dominant-baseline="central" text-anchor="end" style="font-size:12px;font-family:sans-serif;" transform="translate(42 340)" fill="#6E7079">2</text>
<text dominant-baseline="central" text-anchor="end" style="font-size:12px;font-family:sans-serif;" transform="translate(42 275)" fill="#6E7079">2.5</text>
<text dominant-baseline="central" text-anchor="end" style="font-size:12px;font-family:sans-serif;" transform="translate(42 210)" fill="#6E7079">3</text>
<text dominant-baseline="central" text-anchor="end" style="font-size:12px;font-family:sans-serif;" transform="translate(42 145)" fill="#6E7079">3.5</text>
<text dominant-baseline="central" text-anchor="end" style="font-size:12px;font-family:sans-serif;" transform="translate(42 80)" fill="#6E7079">4</text>
<path d="M133.6 229.9L183.6 229.9L183.6 193.4L133.6 193.4ZM158.6 280.3L158.6 229.9M158.6 144.2L158.6 193.4M133.6 280.3L183.6 280.3M133.6 144.2L183.6 144.2M133.6 217.5L183.6 217.5" fill="#fff" stroke="#5470c6"></path>
<path d="M316.4 236.6L366.4 236.6L366.4 206.1L316.4 206.1ZM341.4 272.5L341.4 236.6M341.4 160.2L341.4 206.1M316.4 272.5L366.4 272.5M316.4 160.2L366.4 160.2M316.4 220.9L366.4 220.9" fill="#fff" stroke="#91cc75"></path>
<path d="M-5 -5l182.2 0l0 26l-182.2 0Z" transform="translate(163.9 45)" fill="rgb(0,0,0)" fill-opacity="0" stroke="#ccc" stroke-width="0"></path>
<path d="M3.5 0L21.5 0A3.5 3.5 0 0 1 25 3.5L25 10.5A3.5 3.5 0 0 1 21.5 14L3.5 14A3.5 3.5 0 0 1 0 10.5L0 3.5A3.5 3.5 0 0 1 3.5 0" transform="translate(164.9 46)" fill="#5470c6" stroke="#5470c6" stroke-width="2" stroke-linecap="butt" stroke-miterlimit="10"></path>
<text dominant-baseline="central" text-anchor="start" style="font-size:12px;font-family:sans-serif;" x="30" y="7" transform="translate(164.9 46)" fill="#333">mslibos</text>
<path d="M3.5 0L21.5 0A3.5 3.5 0 0 1 25 3.5L25 10.5A3.5 3.5 0 0 1 21.5 14L3.5 14A3.5 3.5 0 0 1 0 10.5L0 3.5A3.5 3.5 0 0 1 3.5 0" transform="translate(246.58 46)" fill="#91cc75" stroke="#91cc75" stroke-width="2" stroke-linecap="butt" stroke-miterlimit="10"></path>
<text dominant-baseline="central" text-anchor="start" style="font-size:12px;font-family:sans-serif;" x="30" y="7" transform="translate(246.58 46)" fill="#333">faaslane-rs</text>
<path d="M-62.1 -5l124.3 0l0 28l-124.3 0Z" transform="translate(250 5)" fill="rgb(0,0,0)" fill-opacity="0" stroke="#ccc" stroke-width="0"></path>
<text dominant-baseline="central" text-anchor="middle" style="font-size:18px;font-family:sans-serif;font-weight:bold;" xml:space="preserve" y="9" transform="translate(250 5)" fill="#464646">Media Service</text>
</svg>